<mxfile host="app.diagrams.net" modified="2021-06-05T18:50:30.033Z" agent="5.0 (Windows NT 10.0; Win64; x64) AppleWebKit/537.36 (KHTML, like Gecko) Chrome/91.0.4472.77 Safari/537.36" etag="VLoZMIz3tkRF2g1YPiNw" version="14.7.6" type="github">
  <diagram id="xkUWF3k0ZQaZj3XQph8S" name="Page-1">
    <mxGraphModel dx="1038" dy="585" grid="1" gridSize="10" guides="1" tooltips="1" connect="1" arrows="1" fold="1" page="0" pageScale="1" pageWidth="1100" pageHeight="850" math="0" shadow="0">
      <root>
        <mxCell id="0" />
        <mxCell id="1" parent="0" />
        <mxCell id="dG3aLrfncnAhgyM9Wtl9-7" value="LAN 192.168.0.0/24" style="rounded=0;whiteSpace=wrap;html=1;align=center;verticalAlign=top;" parent="1" vertex="1">
          <mxGeometry x="10" y="10" width="350" height="310" as="geometry" />
        </mxCell>
        <mxCell id="dG3aLrfncnAhgyM9Wtl9-2" value="ISP-WAN" style="ellipse;shape=cloud;whiteSpace=wrap;html=1;" parent="1" vertex="1">
          <mxGeometry x="410" y="30" width="120" height="80" as="geometry" />
        </mxCell>
        <mxCell id="dG3aLrfncnAhgyM9Wtl9-32" style="edgeStyle=orthogonalEdgeStyle;rounded=0;orthogonalLoop=1;jettySize=auto;html=1;" parent="1" source="dG3aLrfncnAhgyM9Wtl9-3" target="dG3aLrfncnAhgyM9Wtl9-31" edge="1">
          <mxGeometry relative="1" as="geometry" />
        </mxCell>
        <mxCell id="dG3aLrfncnAhgyM9Wtl9-35" value="10.100.0.1" style="edgeLabel;html=1;align=center;verticalAlign=middle;resizable=0;points=[];" parent="dG3aLrfncnAhgyM9Wtl9-32" vertex="1" connectable="0">
          <mxGeometry x="-0.2744" y="-4" relative="1" as="geometry">
            <mxPoint x="14" y="11" as="offset" />
          </mxGeometry>
        </mxCell>
        <mxCell id="dG3aLrfncnAhgyM9Wtl9-33" style="edgeStyle=orthogonalEdgeStyle;rounded=0;orthogonalLoop=1;jettySize=auto;html=1;" parent="1" source="dG3aLrfncnAhgyM9Wtl9-3" target="dG3aLrfncnAhgyM9Wtl9-6" edge="1">
          <mxGeometry relative="1" as="geometry" />
        </mxCell>
        <mxCell id="dG3aLrfncnAhgyM9Wtl9-34" value="10.100.0.2" style="edgeLabel;html=1;align=center;verticalAlign=middle;resizable=0;points=[];" parent="dG3aLrfncnAhgyM9Wtl9-33" vertex="1" connectable="0">
          <mxGeometry x="0.3354" y="3" relative="1" as="geometry">
            <mxPoint x="23" y="12" as="offset" />
          </mxGeometry>
        </mxCell>
        <mxCell id="dG3aLrfncnAhgyM9Wtl9-3" value="WireGuard Tunel" style="outlineConnect=0;dashed=0;verticalLabelPosition=bottom;verticalAlign=top;align=center;html=1;shape=mxgraph.aws3.vpn_connection;fillColor=#F58534;gradientColor=none;" parent="1" vertex="1">
          <mxGeometry x="440.75" y="230" width="58.5" height="50" as="geometry" />
        </mxCell>
        <mxCell id="dG3aLrfncnAhgyM9Wtl9-5" value="" style="aspect=fixed;pointerEvents=1;shadow=0;dashed=0;html=1;strokeColor=none;labelPosition=center;verticalLabelPosition=bottom;verticalAlign=top;align=center;fillColor=#00188D;shape=mxgraph.mscae.enterprise.workstation_client" parent="1" vertex="1">
          <mxGeometry x="30" y="30" width="50" height="50" as="geometry" />
        </mxCell>
        <mxCell id="dG3aLrfncnAhgyM9Wtl9-6" value=".50" style="shape=image;html=1;verticalAlign=top;verticalLabelPosition=bottom;labelBackgroundColor=#ffffff;imageAspect=0;aspect=fixed;image=https://cdn2.iconfinder.com/data/icons/system-flat-buttons/512/raspberry-128.png" parent="1" vertex="1">
          <mxGeometry x="250" y="215" width="80" height="80" as="geometry" />
        </mxCell>
        <mxCell id="dG3aLrfncnAhgyM9Wtl9-8" value="" style="aspect=fixed;pointerEvents=1;shadow=0;dashed=0;html=1;strokeColor=none;labelPosition=center;verticalLabelPosition=bottom;verticalAlign=top;align=center;fillColor=#00188D;shape=mxgraph.mscae.enterprise.workstation_client" parent="1" vertex="1">
          <mxGeometry x="30" y="100" width="50" height="50" as="geometry" />
        </mxCell>
        <mxCell id="dG3aLrfncnAhgyM9Wtl9-9" value="" style="aspect=fixed;pointerEvents=1;shadow=0;dashed=0;html=1;strokeColor=none;labelPosition=center;verticalLabelPosition=bottom;verticalAlign=top;align=center;fillColor=#00188D;shape=mxgraph.mscae.enterprise.workstation_client" parent="1" vertex="1">
          <mxGeometry x="30" y="180" width="50" height="50" as="geometry" />
        </mxCell>
        <mxCell id="dG3aLrfncnAhgyM9Wtl9-10" value="" style="aspect=fixed;pointerEvents=1;shadow=0;dashed=0;html=1;strokeColor=none;labelPosition=center;verticalLabelPosition=bottom;verticalAlign=top;align=center;fillColor=#00188D;shape=mxgraph.mscae.enterprise.workstation_client" parent="1" vertex="1">
          <mxGeometry x="30" y="250" width="50" height="50" as="geometry" />
        </mxCell>
        <mxCell id="dG3aLrfncnAhgyM9Wtl9-11" value="HTTP Server @&lt;br&gt;0.100:80" style="image;html=1;image=img/lib/clip_art/computers/Server_Tower_128x128.png;align=left;verticalAlign=top;" parent="1" vertex="1">
          <mxGeometry x="250" y="20" width="80" height="80" as="geometry" />
        </mxCell>
        <mxCell id="dG3aLrfncnAhgyM9Wtl9-12" value="" style="points=[[0.015,0.015,0],[0.985,0.015,0],[0.985,0.985,0],[0.015,0.985,0],[0.25,0,0],[0.5,0,0],[0.75,0,0],[1,0.25,0],[1,0.5,0],[1,0.75,0],[0.75,1,0],[0.5,1,0],[0.25,1,0],[0,0.75,0],[0,0.5,0],[0,0.25,0]];verticalLabelPosition=bottom;html=1;verticalAlign=top;aspect=fixed;align=center;pointerEvents=1;shape=mxgraph.cisco19.rect;prIcon=l2_switch;fillColor=#FAFAFA;strokeColor=#005073;" parent="1" vertex="1">
          <mxGeometry x="160" y="140" width="50" height="50" as="geometry" />
        </mxCell>
        <mxCell id="dG3aLrfncnAhgyM9Wtl9-15" value="" style="line;strokeWidth=4;html=1;perimeter=backbonePerimeter;points=[];outlineConnect=0;align=center;verticalAlign=top;" parent="1" vertex="1">
          <mxGeometry x="210" y="160" width="120" height="10" as="geometry" />
        </mxCell>
        <mxCell id="dG3aLrfncnAhgyM9Wtl9-17" value="" style="endArrow=none;html=1;entryX=0.015;entryY=0.015;entryDx=0;entryDy=0;entryPerimeter=0;" parent="1" source="dG3aLrfncnAhgyM9Wtl9-5" target="dG3aLrfncnAhgyM9Wtl9-12" edge="1">
          <mxGeometry width="50" height="50" relative="1" as="geometry">
            <mxPoint x="130" y="120" as="sourcePoint" />
            <mxPoint x="180" y="70" as="targetPoint" />
          </mxGeometry>
        </mxCell>
        <mxCell id="dG3aLrfncnAhgyM9Wtl9-18" value="" style="endArrow=none;html=1;entryX=0;entryY=0.75;entryDx=0;entryDy=0;entryPerimeter=0;" parent="1" source="dG3aLrfncnAhgyM9Wtl9-9" target="dG3aLrfncnAhgyM9Wtl9-12" edge="1">
          <mxGeometry width="50" height="50" relative="1" as="geometry">
            <mxPoint x="30" y="160" as="sourcePoint" />
            <mxPoint x="80" y="110" as="targetPoint" />
          </mxGeometry>
        </mxCell>
        <mxCell id="dG3aLrfncnAhgyM9Wtl9-20" value="" style="endArrow=none;html=1;entryX=0.985;entryY=0.015;entryDx=0;entryDy=0;entryPerimeter=0;" parent="1" source="dG3aLrfncnAhgyM9Wtl9-11" target="dG3aLrfncnAhgyM9Wtl9-12" edge="1">
          <mxGeometry width="50" height="50" relative="1" as="geometry">
            <mxPoint x="310" y="260" as="sourcePoint" />
            <mxPoint x="360" y="210" as="targetPoint" />
          </mxGeometry>
        </mxCell>
        <mxCell id="dG3aLrfncnAhgyM9Wtl9-22" value="" style="endArrow=none;html=1;exitX=1.024;exitY=0.18;exitDx=0;exitDy=0;exitPerimeter=0;entryX=0.015;entryY=0.985;entryDx=0;entryDy=0;entryPerimeter=0;" parent="1" source="dG3aLrfncnAhgyM9Wtl9-10" target="dG3aLrfncnAhgyM9Wtl9-12" edge="1">
          <mxGeometry width="50" height="50" relative="1" as="geometry">
            <mxPoint x="260" y="390" as="sourcePoint" />
            <mxPoint x="310" y="340" as="targetPoint" />
          </mxGeometry>
        </mxCell>
        <mxCell id="dG3aLrfncnAhgyM9Wtl9-23" value="" style="endArrow=none;html=1;exitX=1.056;exitY=0.66;exitDx=0;exitDy=0;exitPerimeter=0;entryX=0;entryY=0.25;entryDx=0;entryDy=0;entryPerimeter=0;" parent="1" source="dG3aLrfncnAhgyM9Wtl9-8" target="dG3aLrfncnAhgyM9Wtl9-12" edge="1">
          <mxGeometry width="50" height="50" relative="1" as="geometry">
            <mxPoint x="260" y="210" as="sourcePoint" />
            <mxPoint x="310" y="160" as="targetPoint" />
            <Array as="points" />
          </mxGeometry>
        </mxCell>
        <mxCell id="dG3aLrfncnAhgyM9Wtl9-28" style="edgeStyle=orthogonalEdgeStyle;rounded=0;orthogonalLoop=1;jettySize=auto;html=1;entryX=0.55;entryY=0.95;entryDx=0;entryDy=0;entryPerimeter=0;" parent="1" source="dG3aLrfncnAhgyM9Wtl9-14" target="dG3aLrfncnAhgyM9Wtl9-2" edge="1">
          <mxGeometry relative="1" as="geometry" />
        </mxCell>
        <mxCell id="dG3aLrfncnAhgyM9Wtl9-14" value="Gateway" style="image;html=1;image=img/lib/clip_art/networking/Router_Icon_128x128.png;align=center;verticalAlign=top;" parent="1" vertex="1">
          <mxGeometry x="320" y="120" width="80" height="80" as="geometry" />
        </mxCell>
        <mxCell id="dG3aLrfncnAhgyM9Wtl9-25" value="" style="endArrow=none;html=1;exitX=0;exitY=0;exitDx=0;exitDy=0;entryX=0.985;entryY=0.985;entryDx=0;entryDy=0;entryPerimeter=0;" parent="1" source="dG3aLrfncnAhgyM9Wtl9-6" target="dG3aLrfncnAhgyM9Wtl9-12" edge="1">
          <mxGeometry width="50" height="50" relative="1" as="geometry">
            <mxPoint x="310" y="270" as="sourcePoint" />
            <mxPoint x="360" y="220" as="targetPoint" />
          </mxGeometry>
        </mxCell>
        <mxCell id="dG3aLrfncnAhgyM9Wtl9-37" style="edgeStyle=orthogonalEdgeStyle;rounded=0;orthogonalLoop=1;jettySize=auto;html=1;" parent="1" source="dG3aLrfncnAhgyM9Wtl9-31" target="dG3aLrfncnAhgyM9Wtl9-36" edge="1">
          <mxGeometry relative="1" as="geometry" />
        </mxCell>
        <mxCell id="dG3aLrfncnAhgyM9Wtl9-38" value="80.211.207.110" style="edgeLabel;html=1;align=center;verticalAlign=middle;resizable=0;points=[];" parent="dG3aLrfncnAhgyM9Wtl9-37" vertex="1" connectable="0">
          <mxGeometry x="-0.8057" y="-3" relative="1" as="geometry">
            <mxPoint y="-40" as="offset" />
          </mxGeometry>
        </mxCell>
        <mxCell id="dG3aLrfncnAhgyM9Wtl9-31" value="CentOS 7 VPS" style="image;html=1;image=img/lib/clip_art/computers/Server_Tower_128x128.png;align=center;verticalAlign=top;" parent="1" vertex="1">
          <mxGeometry x="600" y="215" width="80" height="80" as="geometry" />
        </mxCell>
        <mxCell id="dG3aLrfncnAhgyM9Wtl9-36" value="INTERNET" style="ellipse;shape=cloud;whiteSpace=wrap;html=1;" parent="1" vertex="1">
          <mxGeometry x="580" y="30" width="120" height="80" as="geometry" />
        </mxCell>
        <mxCell id="dG3aLrfncnAhgyM9Wtl9-41" style="edgeStyle=orthogonalEdgeStyle;rounded=0;orthogonalLoop=1;jettySize=auto;html=1;" parent="1" source="dG3aLrfncnAhgyM9Wtl9-40" target="dG3aLrfncnAhgyM9Wtl9-36" edge="1">
          <mxGeometry relative="1" as="geometry" />
        </mxCell>
        <mxCell id="dG3aLrfncnAhgyM9Wtl9-42" value="HTTP://80.211.207.110:8888" style="edgeLabel;html=1;align=center;verticalAlign=middle;resizable=0;points=[];" parent="dG3aLrfncnAhgyM9Wtl9-41" vertex="1" connectable="0">
          <mxGeometry x="-0.1556" y="-1" relative="1" as="geometry">
            <mxPoint x="-4" y="-9" as="offset" />
          </mxGeometry>
        </mxCell>
        <mxCell id="dG3aLrfncnAhgyM9Wtl9-40" value="" style="aspect=fixed;pointerEvents=1;shadow=0;dashed=0;html=1;strokeColor=none;labelPosition=center;verticalLabelPosition=bottom;verticalAlign=top;align=center;fillColor=#00188D;shape=mxgraph.azure.laptop" parent="1" vertex="1">
          <mxGeometry x="880" y="42.5" width="91.67" height="55" as="geometry" />
        </mxCell>
      </root>
    </mxGraphModel>
  </diagram>
</mxfile>
